<?xml version="1.0" encoding="UTF-8"?><svg id="Calque_2" xmlns="http://www.w3.org/2000/svg" viewBox="0 0 262.19 216.62"><defs><style>.cls-1{fill:#939393;stroke:#0f0c26;stroke-width:.7px;}.cls-1,.cls-2,.cls-3{stroke-miterlimit:10;}.cls-4{fill:#7c7774;}.cls-2{fill:#fff;stroke:rgba(84,81,79,.75);stroke-width:2.8px;}.cls-3{fill:#e1d6ce;stroke:#54514f;}.cls-5{opacity:.62;}.cls-5,.cls-6{fill:#0f0c26;}.cls-7{fill:#54514f;}</style></defs><g id="Calque_7"><g id="carnet"><rect class="cls-7" x="15.04" y="17.38" width="247.15" height="199.23"/><rect class="cls-4" x="6.61" y="9.5" width="247.15" height="199.23"/><rect class="cls-3" x=".5" y="3.9" width="247.15" height="199.23"/><rect class="cls-6" x="32.75" y="13.44" width="11.82" height="11.82"/><rect class="cls-6" x="57.95" y="13.44" width="11.82" height="11.82"/><rect class="cls-6" x="81.76" y="13.44" width="11.82" height="11.82"/><rect class="cls-6" x="106.96" y="13.44" width="11.82" height="11.82"/><rect class="cls-6" x="132.16" y="13.44" width="11.82" height="11.82"/><rect class="cls-6" x="157.37" y="13.44" width="11.82" height="11.82"/><rect class="cls-6" x="181.17" y="13.44" width="11.82" height="11.82"/><rect class="cls-6" x="203.58" y="13.44" width="11.82" height="11.82"/><rect class="cls-1" x="35.86" y=".82" width="5.6" height="29.12" rx="2" ry="2"/><rect class="cls-1" x="61.06" y=".82" width="5.6" height="29.12" rx="2" ry="2"/><rect class="cls-1" x="84.87" y=".82" width="5.6" height="29.12" rx="2" ry="2"/><rect class="cls-1" x="110.07" y="1.65" width="5.6" height="29.12" rx="2" ry="2"/><rect class="cls-1" x="135.28" y=".35" width="5.6" height="29.12" rx="2" ry="2"/><rect class="cls-1" x="160.48" y=".82" width="5.6" height="29.12" rx="2" ry="2"/><rect class="cls-1" x="184.28" y=".82" width="5.6" height="29.12" rx="2" ry="2"/><rect class="cls-1" x="206.69" y=".82" width="5.6" height="29.12" rx="2" ry="2"/><rect class="cls-2" x="16.17" y="47.54" width="117.4" height="84.95"/><rect class="cls-5" x="140.68" y="59.78" width="89.92" height="4.64"/><rect class="cls-5" x="140.68" y="77.72" width="89.92" height="4.64"/><rect class="cls-5" x="140.68" y="94.55" width="89.92" height="4.64"/><rect class="cls-5" x="140.68" y="112.38" width="89.92" height="4.64"/><rect class="cls-5" x="18.04" y="143.1" width="217.54" height="4.64"/><rect class="cls-5" x="18.04" y="177.87" width="217.54" height="4.64"/><rect class="cls-5" x="18.04" y="159.9" width="217.54" height="4.64"/></g></g></svg>