<?xml version="1.0" encoding="UTF-8"?><svg id="Calque_2" xmlns="http://www.w3.org/2000/svg" viewBox="0 0 260.58 245.49"><defs><style>.cls-1{fill:#f9918f;stroke:#ad5050;stroke-width:.4px;}.cls-1,.cls-2{stroke-miterlimit:10;}.cls-2{fill:#9265a6;stroke:#fff;stroke-width:.31px;}.cls-3{fill:#332e60;}.cls-4{fill:#9e76b0;}.cls-5{fill:#6a6a77;}</style></defs><g id="Calque_7"><path class="cls-4" d="M253.8,132.95c-.14.38-.27.75-.4,1.12-.04-.37-.02-.83.03-1.35.03-.52.09-1.1.18-1.72-1.6,5.93-2.79,12.73-4.17,19.34-1.34,6.64-2.64,13.1-3.68,18.27-1.5,3.43-2.38,6.69-1.75,7.41.62.7,2.47-1.54,4.13-5.05.41-.75.84-1.65,1.2-2.17,3.34-4.62,6.35-10.9,8.77-18.17-.58,1.37-1.15,2.81-1.81,4.14l.59-1.54c.17-.53.34-1.05.51-1.59.33-1.07.65-2.19.93-3.38-.2.23-.44.49-.65.72.73-1.77,1.27-3.77,1.74-5.84.23-1.04.45-2.09.62-3.14.14-1.06.26-2.12.35-3.16.09-1.04.16-2.07.2-3.07.02-1-.02-1.96-.07-2.88-.12-1.83-.3-3.46-.65-4.77-.74-2.63-1.69-3.46-2.61-2.76-.93.7-1.77,2.93-2.65,6.47l-.79,3.13Z"/><path class="cls-4" d="M246.88,145.15c.71-1.96,1.3-3.91,1.96-5.85.62-1.94,1.13-3.9,1.7-5.86l.39-.76-1.34.13.07.09c.65,3.83.28,10.11-.83,15.78l-.28,2.05c-.07,1-.03,1.7.19,1.97.47.63,1.59-.95,2.27-3.61l.82-3.05c.58-1.84,1.08-3.99,1.56-6.23.42-2.25.69-4.61.89-6.87.1-2.26.08-4.43-.08-6.29-.22-1.86-.61-3.43-1.13-4.49-.49-.96-1.16-.14-1.76.05-.43-.15-.85.47-1.19,1.59-.17.56-.31,1.24-.43,2.01-.12.77-.26,1.63-.34,2.55-.19,1.84-.11,3.57-.03,4.87.1,1.31.37,2.21.79,2.4-.14.62-.28,1.26-.42,1.87-.04-.5-.08-1.01-.12-1.53.3.57.41,1.71.4,3.03-.04,1.31-.16,2.81-.19,4.1l-.24,1.9-.32,1.89c.82-.56,1.66-1.12,2.46-1.71l.1-2.05c-.11.14-.29.4-.29.38.05-1.95.17-3.81.14-5.73-.02-1.92.04-3.86.05-5.95l-.34-5.25c-.32-1.43-.88-1.31-1.33.19l-.61,2.24c.11-.34.22-.67.34-1.01-.2,1.3-.41,2.62-.62,3.94-.23,1.32-.51,2.64-.77,3.96-.47,2.64-1.2,5.23-1.88,7.72-.22.78-.39,1.76-.28,2.22.11.4.42.11.7-.7Z"/><path class="cls-4" d="M249.04,126.83c.23-.83.39-1.64.4-2.85-.08-.29-.13-.44-.15-.52-.11.44-.25,1.04-.39,1.64-.27,1.17-.15,1.79.14,1.73Z"/><path class="cls-4" d="M249.29,123.46c.1-.41.16-.69.16-.69-.07.16-.14.31-.2.46.01.13.01.14.01.14,0,0,0,0,.03.09Z"/><path class="cls-4" d="M86.61,239.12c-15.67-5.76-30.18-14.56-42.45-25.73-.41-.37-.83-.61-.94-.53-.09.06.16.43.55.77,12.31,11.24,26.78,20.05,42.49,25.86.53.19,1,.25,1.11.16.07-.11-.27-.34-.76-.52Z"/><path class="cls-4" d="M17.16,148.16c.19.32.31.27.3-.11,0-.33-.11-.88-.29-1.2-.15-.27-.3-.22-.3.1,0,.38.14.93.28,1.21Z"/><path class="cls-4" d="M27.52,148.54c.66,1.81,1.47,3.46,2.31,4.89.15.27.24.59.28.85.16-.17.45.11.74.73,3.11,6.05,6.67,12.04,10.77,17.71,4.1,5.66,8.75,11,13.87,15.69.18-.05.42-.02.74.09,1,.36,2.56,1.49,3.93,2.91l1,1.12c4.27,4.27,8.98,8.09,13.95,11.53,1.15.49,2.5,1.01,3.86,1.76,4.85,1.98,9.79,3.61,14.85,5.01-.26-.25-.38-.48-.32-.65.24-.35,1.49-.27,2.8.18.67.22,1.34.44,2.01.65-1.87-.78-3.78-1.44-5.59-2.34-.27-.11-.51-.24-.72-.36-2.07-.77-4.07-1.76-6.16-2.63-4.49-2.09-8.8-4.41-12.94-6.94-4.16-2.52-8.05-5.38-11.81-8.37-3.78-2.99-7.27-6.29-10.59-9.75-3.35-3.45-6.4-7.18-9.23-11.1-.22-.24-.45-.67-.5-.97,0-.21.14-.25.36.02,3.95,4.71,8.18,8.55,12.66,12.14,4.5,3.58,9.28,6.91,14.66,10.43,6.46,4.12,13.18,7.51,20.18,10.03,7.01,2.47,14.2,4.27,21.61,5.09,7.62,1.42,15.21,1.7,22.66.79,7.44-.87,14.73-2.68,21.93-5.57,19.42-7.73,35.15-21.15,45.4-38.55.43-.84.89-1.66,1.37-2.44.46-.79.89-1.57,1.36-2.3.98-1.45,1.83-2.82,2.76-3.96.96-1.12,1.75-2.11,2.6-2.78.83-.67,1.63-1.06,2.33-1.08,1.69-.03,2.41,2.15,2.08,5.71.26-.63.51-1.24.77-1.87.47-.96,1.01-1.9,1.44-2.88.62-1.39,1.32-2.64,1.99-3.73.63-1.1,1.28-2.03,1.94-2.72.56-.64,1.13-1.29,1.63-1.96,1.31-1.26,2.79-3.04,4.03-4.85.65-.9,1.3-1.8,1.95-2.62.64-.82,1.22-1.58,1.85-2.17l.72.71.31-.6c.86-2.02,1.81-3.38,2.64-3.8l.96.3c1.1.56,2.01,1.76,2.76,3.67.42-.01.8.25,1.12.77,1.19-1.41,2.33-2.06,3.33-.66.41-.92.81-.72.91.46.03.41.02.89-.02,1.38,0,0,0-.01,0-.01.32-.49.42-.64.79-1.33.22-.95.34-1.5.34-1.5.47-2.55.4-2.56.76-4.78.24-.95.52-1.72.7-2.26.18-.53.3-.83.3-.83,1.81-2.09,1.81-2.12,2.55-1.75.07.13.14.28.2.43.3-1.76.33-1.88.41-2.36.15-.5.31-.84.31-.84q.41-.08.56-.38c.16-.1.31-.08.31-.08.43,1,.43,1,.56,1.03.12.24.21.57.21.57.11,1.18.15,1.65.17,1.85-1.12,2.47-1.12,2.48-1.12,2.48.35.56.34.56.34.56l-.53.56.47-.31-.36,1.25.5-1.42q-.38,2.99-.46,4.19c-.13,1.24-.15,2.32-.16,2.44.15-.09.25-.08.25-.08-.59,3.17-.53,3.18-1.2,6.25-.15.27-.28.48-.42.68.07.32.03.92-.11,1.52-.12.54-.24,1.07-.37,1.6,0,.12,0,.25,0,.36.02,0,.03,0,.03,0-.02.57-.02.96-.06,1.4-.01.28-.01.29-.01.29h0c-.09.98-.15,2.38-.52,6.1-.32.93-.64,1.79-.95,2.6.14-.25.28-.49.41-.72.28-.46.52.1.63-.16,2.67-6.49,4.44-13.98,5.58-21.46.06-1.35.38-2.61.71-2.78.33-.16.55.84.48,2.24.38,7.79-.7,16.56-3.21,24.98-2.48,8.43-6.38,16.47-10.87,23.09-1.05,1.82-2.23,3.56-3.34,5.34-1.14,1.76-2.39,3.46-3.59,5.19l.49-.4c-.66.87-1.38,1.7-2.09,2.52l-.22.28c.67-.54,1.35-1.08,2.01-1.62.37-.44.73-.89,1.11-1.33,5.59-8.05,10.62-15.59,14.7-24.4,1.08-2.37,2.08-4.59,3.08-6.77.9-2.22,1.91-4.4,2.71-6.75.33-1.24.77-2.04,1.02-1.83.24.21.16,1.42-.16,2.64-1.78,8.16-4.81,16.68-8.81,24.21-3.97,7.55-8.88,14.07-13.7,18.67-1.7,2.46-3.72,4.55-5.51,6.15l-.09.1c.54-.36,1.05-.7,1.6-1.07-1.48,1.68-2.66,2.24-4.13,3.64.36-.01.74-.03,1.1-.04-3.74,4.05-7.85,8.03-12.1,11.69-2.16,1.79-4.31,3.55-6.56,5.06-2.19,1.59-4.48,2.93-6.71,4.15-.35.21-.67.41-.99.61-1.67,1.41-3.35,2.85-5.2,4.23-.94.67-1.91,1.34-2.93,2-1.02.67-2.08,1.34-3.24,1.93,1.62-.7,3.13-1.53,4.71-2.32-1.55,1.09-3.11,2.18-4.79,3.12-1.67.95-3.37,1.95-5.24,2.74-1.26.56-2.54,1.11-3.84,1.64-1.31.51-2.65.95-3.97,1.39-2.64.92-5.34,1.5-7.86,2.06-2.55.48-4.97.77-7.1.93-2.16.08-4.04.02-5.53-.18-20.29,4.49-41.62,3.96-61.82-1.5-1.05-.26-1.93-.69-2.03-.99-.04-.25.71-.25,1.75,0,14.48,3.55,29.58,4.67,44.4,3.35-6.22.17-12.45,0-18.67-.73-6.21-.7-12.43-1.74-18.57-3.32-1.59-.3-3.16-.73-4.74-1.14-1.56-.41-3.09-.89-4.56-1.52-7.7-2.53-14.94-5.77-21.87-9.62-6.93-3.85-13.57-8.31-20.06-13.47-5.53-4.41-10.44-8.95-14.93-13.89-4.5-4.93-8.68-10.19-12.66-16.15-5.55-8.39-9.97-17.09-13.23-26.23-3.21-9.15-5.29-18.73-5.99-28.79-.33-2.67.16-5.17.74-5.5.62-.33,1.17,1.57,1.41,4.2,1.11,10.28,3.44,20.35,6.96,29.93,3.58,9.55,8.19,18.67,13.89,27.07,5.71,8.38,12.29,16.19,19.84,23.09,3.71,3.52,7.75,6.7,11.87,9.81,2.13,1.46,4.19,3.03,6.41,4.39,1.1.7,2.18,1.42,3.29,2.1,1.13.66,2.26,1.32,3.39,1.97l1.46.85,1.49.78c1,.52,1.99,1.04,2.98,1.55,1.99,1,4.03,1.89,6.04,2.83-.02-.1-.04-.2,0-.27.13-.3.64-.43,1.39-.41-1.16-.45-2.27-1.04-3.4-1.56-1.12-.55-2.27-1.06-3.37-1.66-2.19-1.21-4.43-2.36-6.53-3.73-12.45-6.28-24.12-14.84-33.5-26.61-6.41-8.08-10.8-16.42-14.39-25.12-2.76-5.28-5.21-10.74-7.23-16.4-1.96-5.67-3.55-11.51-4.67-17.49-.12-.47-.11-.98-.02-1.17.1-.19.25.05.35.53,1.96,8.13,4.66,16.22,8.16,23.97-.15-1.38.08-2.3.63-2.38.55-.09,1.37.7,2.28,2.01-.71-1.74-1.27-3.53-1.86-5.31-.35-1.11-.44-2.03-.16-2.09.29-.06.8.74,1.14,1.78,2.35,7.22,5.41,14.19,9.13,20.79,4.78,7.75,10.38,14.91,16.79,21.31-.59-1.17-.91-2.12-.79-2.81h0c-.92-1.05-1.83-2.08-2.74-3.11-8.69-9.19-15.93-20.18-20.84-32.34-4.87-12.16-7.51-25.4-7.44-38.69-.02-.52.08-.95.21-.96.13,0,.25.39.25.86-.04,7.99.87,15.97,2.69,23.7,0-.01,0-.02,0-.03,0-.33.13-.42.3-.1.15.28.29.89.29,1.21,0,.38-.15.38-.3.1,3.53,14.38,10.24,27.79,19.15,38.99-7.76-10.77-13.65-23-16.78-35.91-.56-1.35-.99-2.73-1.49-4.13-.12-.38-.16-.91-.08-1.1.08-.13.27.13.4.52.13.39.26.77.39,1.16-.55-2.46-.34-4.46.33-4.54.35,0,.75.5,1.11,1.31.39.8.79,1.91,1.06,3.16,1.69,6.62,3.93,13.06,6.72,19.25l1.02,1.96c.39.64.8,1.25,1.25,1.85-4.41-9.55-7.38-19.71-8.75-29.97-.16-.87-.1-1.65.13-1.7.23-.06.56.61.72,1.48l.77,3.31.92,3.27c.56,2.19,1.36,4.32,2.05,6.46,1.56,4.25,3.25,8.44,5.31,12.47,1.97,4.07,4.29,7.95,6.74,11.74,1.28,1.86,2.51,3.75,3.91,5.53.69.89,1.33,1.82,2.06,2.69l2.16,2.61c4.54,3.95,9.36,7.46,14.44,10.57-.54-.5-1.12-.98-1.65-1.5-3.5-3.23-6.76-6.44-9.88-9.7-3.04-3.32-6.04-6.6-8.7-10.16-5.46-7-10.01-14.8-13.24-23.79-.18-.44-.17-.86-.08-.95.1-.08.3.19.44.65.43,1.08.85,2.14,1.27,3.2.21.52.43,1.05.64,1.57l.72,1.52c.49,1,.97,2,1.46,3,.54.97,1.07,1.93,1.61,2.89,1.03,1.94,2.29,3.75,3.44,5.62.6.92,1.26,1.82,1.89,2.73.63.91,1.26,1.84,1.96,2.73,4.46,6.01,9.29,11.22,14.57,15.59-4.92-4.92-9.45-10.08-13.48-15.65-4.02-5.57-7.55-11.56-10.3-18.04-.28-.55-.45-1.15-.45-1.57-.07,0-.17-.11-.27-.27-.44-.78-.86-1.61-1.29-2.46-.21-.43-.43-.87-.63-1.31-.18-.45-.37-.91-.55-1.37-.16-.35-.24-.82-.17-1.05.05-.22.22-.03.41.36ZM232.22,172.8c.12-.11.22-.21.31-.29-.27.35-.55.73-.86,1.15l-1.76,1.3s1.15-1.08,2.31-2.16ZM237.56,148.74s0,0,0,.01c.24-.27.44-.5.58-.67.14-.17.22-.27.22-.27-.31.39-.57.68-.8.93ZM123.31,242.32c8.85.28,17.63-.15,26.42-1.16-2.11.44-4.22.88-6.36,1.17-3.34.34-6.69.4-10.04.47-3.35-.07-6.69-.14-10.03-.48ZM242.12,158.63c-.61,1.01-1.2,1.89-1.8,2.68-.63.78-1.24,1.47-1.85,2.13-.45,1.43-.95,2.93-1.66,4.35-.92,1.92-1.78,3.85-2.83,5.65-1,1.83-2,3.63-3.12,5.33.56-.29.04.54-.18.99-.23.46-.47.92-.7,1.38,2.42-3.64,4.76-7.38,6.85-11.36.47-.9.95-1.82,1.43-2.74.46-.94.88-1.9,1.32-2.85.44-.95.88-1.9,1.32-2.83.4-.94.8-1.86,1.2-2.75ZM246.86,128.33c.05-.12.1-.23.15-.36l.45.85s-.26-.21-.6-.49ZM246.1,126.99c-.04.2-.08.4-.12.61-.17-.23-.09-.43.12-.61ZM244.99,132.61c.18-.32.29-.51.37-.77-.37.77-.37.77-.37.77ZM229.59,134.49c.77.76,1.53,1.53,2.24,2.32-.67-.84-1.39-1.66-2.12-2.48l-.12.16Z"/><path class="cls-3" d="M185.17.08h0c-7.44-2.58-29.84,58.77-31.27,62.91,0,0-39.54,117.58-32.1,120.15h0c7.44,2.58,49.99-114.2,49.99-114.2,1.43-4.13,20.83-66.29,13.39-68.86Z"/><path class="cls-1" d="M123.41,176.5s6.07,11.81-5.38,22.22c-11.45,10.41-14.9,20.95-11.45,10.41,3.45-10.54,1.56-21.39,16.83-32.63Z"/><path class="cls-2" d="M117.74,199.27c-11.45,10.41-14.9,20.95-11.45,10.41.83-2.53,1.35-5.09,1.88-7.66,2.29,1.35,5.72-.15,9.57-2.75Z"/><path class="cls-5" d="M125.24,185.48c-3.37-.8-6.16-1.88-8.5-3.24l11.4-36.87,7.49-25.14c4.94,3.13,8.13,4.05,14.57,5.27l-8.77,21.85-16.18,38.13Z"/></g></svg>