<?xml version="1.0" encoding="UTF-8"?><svg id="Calque_2" xmlns="http://www.w3.org/2000/svg" xmlns:xlink="http://www.w3.org/1999/xlink" viewBox="0 0 159.54 134.62"><defs><style>.cls-1{fill:#000;}.cls-1,.cls-2,.cls-3,.cls-4,.cls-5,.cls-6,.cls-7,.cls-8,.cls-9,.cls-10,.cls-11,.cls-12,.cls-13{stroke-width:0px;}.cls-2{fill:#f9f6f2;}.cls-3{fill:url(#Dégradé_sans_nom_48);}.cls-4{fill:url(#Dégradé_sans_nom_37);opacity:.85;}.cls-14{stroke:#f9f6f2;stroke-width:3.07px;}.cls-14,.cls-15,.cls-16{fill:none;stroke-miterlimit:10;}.cls-5{fill:url(#Dégradé_sans_nom_21);}.cls-6{fill:url(#Dégradé_sans_nom_23);}.cls-7{fill:url(#Dégradé_sans_nom_5);}.cls-8{fill:#f9744b;}.cls-15{stroke-width:1.85px;}.cls-15,.cls-16{stroke:#0f0c26;}.cls-9{fill:#0f0c26;}.cls-10{fill:url(#Dégradé_sans_nom_45);}.cls-11{fill:url(#Dégradé_sans_nom_22);}.cls-12{fill:url(#Dégradé_sans_nom_32);}.cls-13{fill:url(#Dégradé_sans_nom_47);opacity:.75;}.cls-16{opacity:.65;stroke-width:2px;}</style><linearGradient id="Dégradé_sans_nom_22" x1="79.98" y1="132.47" x2="78.75" y2="-41.68" gradientUnits="userSpaceOnUse"><stop offset="0" stop-color="#3973bf"/><stop offset=".4" stop-color="#9265a6"/></linearGradient><linearGradient id="Dégradé_sans_nom_5" x1="80.39" y1="7.06" x2="78.03" y2="164.47" gradientUnits="userSpaceOnUse"><stop offset="0" stop-color="#3973bf"/><stop offset=".16" stop-color="#716aaf"/><stop offset=".26" stop-color="#9265a6"/></linearGradient><linearGradient id="Dégradé_sans_nom_32" x1="58.85" y1="44.9" x2="59.32" y2="91.31" gradientUnits="userSpaceOnUse"><stop offset="0" stop-color="#f9744b" stop-opacity=".3"/><stop offset=".22" stop-color="rgba(155,74,60,.58)" stop-opacity=".58"/><stop offset=".48" stop-color="rgba(77,39,47,.81)" stop-opacity=".81"/><stop offset=".74" stop-color="rgba(30,18,40,.95)" stop-opacity=".95"/><stop offset="1" stop-color="#0f0c26"/></linearGradient><linearGradient id="Dégradé_sans_nom_45" x1="119.73" y1="41.2" x2="119.23" y2="84.85" gradientUnits="userSpaceOnUse"><stop offset="0" stop-color="#f9744b" stop-opacity=".25"/><stop offset=".06" stop-color="rgba(198,93,67,.38)" stop-opacity=".38"/><stop offset=".18" stop-color="rgba(116,57,54,.59)" stop-opacity=".59"/><stop offset=".32" stop-color="rgba(58,31,44,.74)" stop-opacity=".74"/><stop offset=".52" stop-color="rgba(24,16,39,.83)" stop-opacity=".83"/><stop offset="1" stop-color="#0f0c26" stop-opacity=".85"/></linearGradient><radialGradient id="Dégradé_sans_nom_21" cx="79.86" cy="104.85" fx="79.86" fy="104.85" r="78.15" gradientUnits="userSpaceOnUse"><stop offset="0" stop-color="#f9744b" stop-opacity=".6"/><stop offset=".22" stop-color="rgba(224,112,96,.46)" stop-opacity=".46"/><stop offset=".75" stop-color="rgba(168,104,146,.13)" stop-opacity=".13"/><stop offset="1" stop-color="#9265a6" stop-opacity="0"/></radialGradient><linearGradient id="Dégradé_sans_nom_37" x1="59.61" y1="151.74" x2="59.23" y2="97.29" gradientUnits="userSpaceOnUse"><stop offset="0" stop-color="#f9744b" stop-opacity=".4"/><stop offset=".05" stop-color="rgba(230,107,72,.44)" stop-opacity=".44"/><stop offset=".32" stop-color="rgba(137,66,57,.66)" stop-opacity=".66"/><stop offset=".57" stop-color="rgba(69,36,46,.82)" stop-opacity=".82"/><stop offset=".81" stop-color="rgba(29,18,40,.92)" stop-opacity=".92"/><stop offset="1" stop-color="#0f0c26" stop-opacity=".95"/></linearGradient><linearGradient id="Dégradé_sans_nom_47" x1="124.84" y1="116.78" x2="124.67" y2="77.11" gradientUnits="userSpaceOnUse"><stop offset="0" stop-color="#f9744b" stop-opacity=".1"/><stop offset=".18" stop-color="rgba(116,57,54,.47)" stop-opacity=".47"/><stop offset=".42" stop-color="rgba(37,21,41,.69)" stop-opacity=".69"/><stop offset="1" stop-color="#0f0c26" stop-opacity=".75"/></linearGradient><linearGradient id="Dégradé_sans_nom_48" x1="80.96" y1="72.88" x2="79.84" y2="177.73" gradientUnits="userSpaceOnUse"><stop offset="0" stop-color="#f9f6f2" stop-opacity=".6"/><stop offset=".08" stop-color="rgba(230,219,228,.49)" stop-opacity=".49"/><stop offset=".21" stop-color="rgba(204,183,209,.34)" stop-opacity=".34"/><stop offset=".35" stop-color="rgba(183,153,193,.22)" stop-opacity=".22"/><stop offset=".49" stop-color="rgba(166,130,181,.12)" stop-opacity=".12"/><stop offset=".64" stop-color="rgba(155,113,172,.05)" stop-opacity=".05"/><stop offset=".8" stop-color="rgba(148,104,167,.01)" stop-opacity=".01"/><stop offset="1" stop-color="#9265a6" stop-opacity="0"/></linearGradient><radialGradient id="Dégradé_sans_nom_23" cx="90.32" cy="44.82" fx="90.32" fy="44.82" r="66.27" gradientTransform="translate(.4 -.99) scale(.87 1.05)" gradientUnits="userSpaceOnUse"><stop offset="0" stop-color="#f9744b" stop-opacity=".6"/><stop offset=".17" stop-color="rgba(236,114,86,.53)" stop-opacity=".53"/><stop offset=".5" stop-color="rgba(202,109,115,.33)" stop-opacity=".33"/><stop offset=".97" stop-color="rgba(149,101,162,.02)" stop-opacity=".02"/><stop offset="1" stop-color="#9265a6" stop-opacity="0"/></radialGradient></defs><g id="Calque_7"><polyline class="cls-16" points="57.14 20.11 79.84 1.36 98.02 20.11"/><path class="cls-1" d="M155.33,18.38v111.86H4.35V18.38h150.97M155.72,17.99H3.97v112.63h151.75V17.99h0Z"/><path class="cls-1" d="M155.33,18.38v111.86H4.35V18.38h150.97M155.72,17.99H3.97v112.63h151.75V17.99h0Z"/><rect class="cls-11" x="3.97" y="71.71" width="151.58" height="58.52"/><rect class="cls-7" x="3.08" y="17.99" width="153.33" height="63.78"/><path class="cls-9" d="M4.17,94.31s82.71-1.49,110.35-1.49c-7.26-5.18-14.34-8.81-14.34-8.81,0,0-1.21-1.04-4.49-3.8s-12.27-7.21-12.27-7.21c0,0,.09,0-1.93-.12-1.68-1.9-3.82-1.69-3.82-1.69l-.72-1.96-4.37-1.27-1.34-1.34s-.41-.29-2.12-.18c-1.62.99-2.33.19-2.33.19-2.16-1.97-4.51-3.35-4.51-3.35l-1.84,1.21-3.97-2.01s-1.47-1.81-2.76-1.51c-1.01.84-1.93.5-1.93.5l-.86-.73-2.33-.26s-.69-.04-1.38.8c-.8.6-2.14.32-2.14.32l-1.49-1.17-1.9.54-1.3-1.73-2.72.11s-1.53,1.43-2.55,3.11c-2.2-.02-2.72.41-2.72.41l-1.35,1.5-2.13.37-2.81,2.24s-3.31.55-4.46,1.67c-4.92,1.58-4.61,3.11-4.61,3.11-1.48-.51-3.31,1.51-4.84,1.38-.35.28-1.25,1.26-1.79,1.01-1.32.85-3.47.17-4.84,1.21l-.8.7-.55.42-.05,17.82Z"/><path class="cls-12" d="M4.17,94.31s82.71-1.49,110.35-1.49c-7.26-5.18-14.34-8.81-14.34-8.81,0,0-1.21-1.04-4.49-3.8s-12.27-7.21-12.27-7.21c0,0,.09,0-1.93-.12-1.68-1.9-3.82-1.69-3.82-1.69l-.72-1.96-4.37-1.27-1.34-1.34s-.41-.29-2.12-.18c-1.62.99-2.33.19-2.33.19-2.16-1.97-4.51-3.35-4.51-3.35l-1.84,1.21-3.97-2.01s-1.47-1.81-2.76-1.51c-1.01.84-1.93.5-1.93.5l-.86-.73-2.33-.26s-.69-.04-1.38.8c-.8.6-2.14.32-2.14.32l-1.49-1.17-1.9.54-1.3-1.73-2.72.11s-1.53,1.43-2.55,3.11c-2.2-.02-2.72.41-2.72.41l-1.35,1.5-2.13.37-2.81,2.24s-3.31.55-4.46,1.67c-4.92,1.58-4.61,3.11-4.61,3.11-1.48-.51-3.31,1.51-4.84,1.38-.35.28-1.25,1.26-1.79,1.01-1.32.85-3.47.17-4.84,1.21l-.8.7-.55.42-.05,17.82Z"/><path class="cls-10" d="M83.42,73s3.61-4.41,7.67-5.1c3.45-5.61,4.41-5.96,4.41-5.96l1.51-.13s2.07-1.73,2.46-2.81c0,0,1.25-.43,1.9-.52s2.03-4.1,2.03-4.1c0,0,1.99-2.85,4.06-4.32.06-.62.88-.66.88-.66l.93.1,4.66,1.68s1.62-.5,3.74,1.17l1.47.19s1.9,2.12,2.42,3.3c1.17.83,6.08,5.36,6.73,6.72,1.43,1.1,1.64,2.01,1.64,2.01,0,0,6.17,3.7,7.75,4.91l1.7.78.58,1.01.78.03.37.81,1.27.09,1.53,1.35h1.24s.58.35,1.24,1.15c0,0,1.5-.07,2.58.66s2.8,2.18,6.27,5.99c-9.48,0-61.07-2.26-61.07-2.26.09-.07-9.51-5.52-10.72-6.08Z"/><path class="cls-5" d="M155.52,81.42l-61.33-2.34s1.31.92,2.66,2.11c1,.87,2.1,1.74,2.96,2.5.35.3.74.57,1.17.75,3.32,1.51,13.77,8.27,13.58,8.56l-110.38,1.49v36.14s151.38-.18,151.38-.18v-45.97l-.03-3.05Z"/><path class="cls-4" d="M4.17,94.31s82.49-1.49,110.13-1.49c-7.26,5.18-14.12,9.64-14.12,9.64,0,0-1.21,1.04-4.49,3.8s-12.27,7.21-12.27,7.21c0,0,.09,0-1.93.12-1.68,1.9-3.82,1.69-3.82,1.69l-.72,1.96-4.37,1.27-1.34,1.34s-.41.29-2.12.18c-1.62-.99-2.33-.19-2.33-.19-2.16,1.97-4.51,3.35-4.51,3.35l-1.84-1.21-3.97,2.01s-1.47,1.81-2.76,1.51c-1.01-.84-1.93-.5-1.93-.5l-.86.73-2.33.26s-.69.04-1.38-.8c-.8-.6-2.14-.32-2.14-.32l-1.49,1.17-1.9-.54-1.3,1.73-2.72-.11s-1.53-1.43-2.55-3.11c-2.2.02-2.72-.41-2.72-.41l-1.35-1.5-2.13-.37-2.81-2.24s-3.31-.55-4.46-1.67c-4.92-1.58-4.61-3.11-4.61-3.11-1.48.51-3.31-1.51-4.84-1.38-.35-.28-1.25-1.26-1.79-1.01-1.32-.85-3.47-.17-4.84-1.21l-.8-.7-.55-.42-.05-15.67Z"/><path class="cls-13" d="M155.22,81.33c-3.89,3.56-5.48,4.96-6.66,5.62s-2.74.48-2.74.48c-.75.76-1.37,1.06-1.37,1.06l-1.29-.09-1.69,1.24h-1.33s-.45.77-.45.77l-.81-.03-.67.97-1.83.65c-1.74,1.1-8.44,4.35-8.44,4.35,0,0-.29.89-1.85,1.89-.77,1.31-6.22,5.49-7.5,6.23-.62,1.15-2.76,3.13-2.76,3.13l-1.55.09c-2.33,1.51-3.99.9-3.99.9l-4.99,1.34-.98.03s-.85-.1-.88-.73c-2.07-1.62-4.37-5.87-4.37-5.87,0,0,13.21-8.81,15.24-10.63-.84-.71-4.42-3.11-7.83-5.15-3.03-1.81-5.94-3.37-6.29-3.59-1.14-.98-4.08-3.5-5.43-4.51-.27-.2-.49-.35-.6-.43"/><path class="cls-3" d="M156.2,81.25l-62.01-2.17s1.33,1,2.69,2.14c.43.37,2.81,2.41,3.3,2.79.82.63,4.04,2.06,6.56,3.68,1.43.91,2.85,1.77,4.04,2.56,2.21,1.46,3.73,2.56,3.73,2.56l-109.67,1.52v36.14s151.38-.18,151.38-.18v-45.97l-.03-3.05Z"/><circle class="cls-8" cx="79.84" cy="41.82" r="9.16"/><path class="cls-2" d="M3.75,94.25c46.44-.79,97.52-1.39,143.96-1.69-46.44.79-97.52,1.39-143.96,1.69h0Z"/><path class="cls-2" d="M7.88,101.91c11.98-.12,36.07-.27,48.05-.3-11.98.12-36.07.27-48.05.3h0Z"/><path class="cls-2" d="M83.41,100.63c11.82-.37,35.62-1.02,47.44-1.3-11.82.37-35.62,1.02-47.44,1.3h0Z"/><path class="cls-2" d="M101.14,80.79c11.89.45,35.82,1.43,47.7,1.97-11.89-.45-35.82-1.43-47.7-1.97h0Z"/><path class="cls-2" d="M114.72,86.66c7.62.27,22.94.9,30.55,1.26-7.62-.27-22.94-.9-30.55-1.26h0Z"/><path class="cls-2" d="M43.09,108.82c6.99-.09,21.07-.18,28.06-.17-6.99.09-21.07.18-28.06.17h0Z"/><path class="cls-2" d="M73.27,118.15c6.99-.09,21.07-.18,28.06-.17-6.99.09-21.07.18-28.06.17h0Z"/><path class="cls-2" d="M11.31,118.74c4.96-.08,14.93-.14,19.88-.12-4.96.08-14.93.14-19.88.12h0Z"/><path class="cls-2" d="M94.19,79.08c19.72.51,41.41,1.34,61.11,2.33-19.72-.51-41.41-1.34-61.11-2.33h0Z"/><rect class="cls-14" x="1.54" y="15.54" width="156.46" height="117.55"/><rect class="cls-15" x="3.97" y="17.99" width="151.56" height="112.63"/><rect class="cls-6" x="3.58" y="17.65" width="150.94" height="75.47"/></g></svg>